<svg xmlns="http://www.w3.org/2000/svg" xmlns:xlink="http://www.w3.org/1999/xlink" viewBox="0 0 280 250" preserveAspectRatio="xMidYMid" style="display: block; shape-rendering: auto; background: transparent;" width="280" height="250"><style type="text/css">
  .ld-text text {
    text-anchor: middle;
    dominant-baseline: middle;
    font-size: 80px;
    opacity: 0;
    user-select: none;
    pointer-events: none;
  }
</style>
<g style="transform-origin:140px 125px;transform:scale(1)" class="ld-text">
<g transform="translate(140,125)">
  <g transform="scale(1.0000) translate(0,0)"><g class="path" style="opacity: 1; transform-origin: -96.13px -3.17px; transform: matrix3d(0.91, 0, 0, 0, 0, 0.91, 0, 0, 0, 0, 0.91, 0, 0, 0, 0, 1); animation: 1s linear -0.528s infinite normal forwards running animate-bngxmx8je1; transform-box: view-box;"><path d="M21.88 28.89L21.88 49.91L6.37 49.91L6.37-6.34L34.02-6.34Q37.93-6.34 41.56-5.42Q45.20-4.50 47.99-2.53Q50.78-0.56 52.44 2.57Q54.10 5.69 54.10 10.14L54.10 10.14Q54.10 13.62 52.64 16.69Q51.17 19.75 48.73 22.16Q46.29 24.56 43.13 26.14Q39.96 27.72 36.56 28.23L36.56 28.23Q38.09 30.81 39.75 33.11Q41.41 35.42 43.11 37.43Q44.80 39.44 46.48 41.14Q48.16 42.84 49.69 44.25L49.69 44.25Q53.28 47.53 56.80 49.91L56.80 49.91L37.46 49.91Q35.12 47.68 33.01 44.56L33.01 44.56Q31.21 41.90 29.39 37.98Q27.58 34.05 26.60 28.89L26.60 28.89L21.88 28.89 zM38.36 10.14L38.36 10.14Q38.36 4.48 35.61 1.82Q32.85-0.83 27.34-0.83L27.34-0.83L21.88-0.83L21.88 23.58L27.34 23.58Q30.27 23.58 32.36 22.47Q34.45 21.36 35.78 19.50Q37.11 17.64 37.73 15.22Q38.36 12.80 38.36 10.14" style="fill: rgb(5, 5, 5);" transform="translate(-127.715,-24.953)"></path></g><g class="path" style="opacity: 1; transform-origin: -45.72px 2.3px; transform: matrix3d(0.91, 0, 0, 0, 0, 0.91, 0, 0, 0, 0, 0.91, 0, 0, 0, 0, 1); animation: 1s linear -0.396s infinite normal forwards running animate-bngxmx8je1; transform-box: view-box;"><path d="M72.46 28.50L72.46 28.50Q74.88 29.05 77.30 29.36Q79.73 29.68 82.19 29.68L82.19 29.68Q84.77 29.68 86.97 29.19Q89.18 28.70 90.80 27.55Q92.42 26.39 93.36 24.48Q94.30 22.57 94.30 19.71L94.30 19.71Q94.30 17.41 93.67 15.50Q93.05 13.58 91.82 12.21Q90.59 10.85 88.79 10.09Q86.99 9.32 84.61 9.32L84.61 9.32Q82.38 9.32 80.61 10.14Q78.83 10.96 77.48 12.35Q76.13 13.74 75.18 15.57Q74.22 17.41 73.59 19.40Q72.97 21.39 72.70 23.43Q72.42 25.46 72.42 27.25L72.42 27.25Q72.42 27.57 72.42 27.88Q72.42 28.19 72.46 28.50 zM105 19.60L105 19.60Q105 22.37 104.10 24.54Q103.20 26.71 101.66 28.35Q100.12 29.99 98.09 31.12Q96.05 32.25 93.75 32.98Q91.45 33.70 89 34.01Q86.56 34.32 84.26 34.32L84.26 34.32Q81.33 34.32 78.48 33.91Q75.63 33.50 72.85 32.61L72.85 32.61Q73.28 35.18 74.22 37.51Q75.16 39.83 76.72 41.57Q78.28 43.31 80.57 44.32Q82.85 45.34 85.98 45.34L85.98 45.34Q88.05 45.34 89.92 44.71Q91.80 44.09 93.36 42.96Q94.92 41.82 96.11 40.26Q97.30 38.70 98.05 36.78L98.05 36.78L103.75 38.89Q102.46 41.98 100.21 44.23Q97.97 46.47 95.14 47.94Q92.30 49.40 89.12 50.11Q85.94 50.81 82.81 50.81L82.81 50.81Q77.66 50.81 73.28 49.07Q68.91 47.33 65.74 44.21Q62.58 41.08 60.78 36.75Q58.98 32.41 58.98 27.25L58.98 27.25Q58.98 22.10 60.78 17.76Q62.58 13.43 65.74 10.30Q68.91 7.18 73.28 5.44Q77.66 3.70 82.81 3.70L82.81 3.70Q85.31 3.70 87.93 4.05Q90.55 4.40 93.01 5.16Q95.47 5.93 97.66 7.14Q99.84 8.35 101.46 10.12Q103.09 11.90 104.04 14.25Q105 16.59 105 19.60" style="fill: rgb(5, 5, 5);" transform="translate(-127.715,-24.953)"></path></g><g class="path" style="opacity: 1; transform-origin: 10.34px -3.27px; transform: matrix3d(0.91, 0, 0, 0, 0, 0.91, 0, 0, 0, 0, 0.91, 0, 0, 0, 0, 1); animation: 1s linear -0.264s infinite normal forwards running animate-bngxmx8je1; transform-box: view-box;"><path d="M165.20 7.61L165.20 7.61L158.52 10.42Q157.73 7.88 156.43 5.77Q155.12 3.66 153.30 2.16Q151.48 0.65 149.18-0.19Q146.88-1.03 144.14-1.03L144.14-1.03Q141.21-1.03 138.77-0.07Q136.33 0.89 134.39 2.57Q132.46 4.25 131.02 6.47Q129.57 8.70 128.59 11.22Q127.62 13.74 127.15 16.43Q126.68 19.13 126.68 21.71L126.68 21.71Q126.68 25.81 127.64 29.87Q128.59 33.93 130.68 37.18Q132.77 40.42 136.09 42.43Q139.41 44.44 144.14 44.44L144.14 44.44Q146.64 44.44 148.87 43.60Q151.09 42.76 152.91 41.30Q154.73 39.83 156.09 37.84Q157.46 35.85 158.28 33.54L158.28 33.54L165.04 36.24Q163.55 39.95 160.98 42.74Q158.40 45.53 155.10 47.37Q151.80 49.21 148.03 50.12Q144.26 51.04 140.43 51.04L140.43 51.04Q136.29 51.04 132.48 50.03Q128.67 49.01 125.39 47.14Q122.11 45.26 119.43 42.61Q116.76 39.95 114.86 36.71Q112.97 33.46 111.93 29.66Q110.90 25.85 110.90 21.71L110.90 21.71Q110.90 17.57 111.93 13.76Q112.97 9.95 114.86 6.69Q116.76 3.43 119.43 0.77Q122.11-1.89 125.39-3.76Q128.67-5.64 132.48-6.65Q136.29-7.67 140.43-7.67L140.43-7.67Q144.41-7.67 148.22-6.73Q152.03-5.79 155.31-3.90Q158.59-2 161.15 0.87Q163.71 3.74 165.20 7.61" style="fill: rgb(5, 5, 5);" transform="translate(-127.715,-24.953)"></path></g><g class="path" style="opacity: 1; transform-origin: 64.87px 1.85px; transform: matrix3d(0.91, 0, 0, 0, 0, 0.91, 0, 0, 0, 0, 0.91, 0, 0, 0, 0, 1); animation: 1s linear -0.132s infinite normal forwards running animate-bngxmx8je1; transform-box: view-box;"><path d="M211.76 8.78L211.76 8.78L204.34 21.08Q203.87 19.52 203.13 17.57Q202.38 15.61 201.29 13.91Q200.20 12.21 198.67 11.06Q197.15 9.91 195.16 9.91L195.16 9.91Q193.32 9.91 191.97 10.85Q190.63 11.78 189.69 13.29Q188.75 14.79 188.14 16.69Q187.54 18.58 187.21 20.52Q186.88 22.45 186.76 24.23Q186.64 26 186.64 27.29L186.64 27.29L186.64 49.91L173.40 49.91L173.40 4.79L178.48 4.79L183.83 15.30Q184.92 12.76 186.33 10.63Q187.73 8.50 189.57 6.96Q191.41 5.42 193.73 4.56Q196.05 3.70 198.98 3.70L198.98 3.70Q200.51 3.70 202.38 3.95Q204.26 4.21 206.05 4.81Q207.85 5.42 209.38 6.39Q210.90 7.37 211.76 8.78" style="fill: rgb(5, 5, 5);" transform="translate(-127.715,-24.953)"></path></g><g class="path" style="opacity: 1; transform-origin: 110.1px 2.3px; transform: matrix3d(0.91, 0, 0, 0, 0, 0.91, 0, 0, 0, 0, 0.91, 0, 0, 0, 0, 1); animation: 1s linear 0s infinite normal forwards running animate-bngxmx8je1; transform-box: view-box;"><path d="M261.80 4.79L261.80 49.91L248.59 49.91L248.59 44.52Q246.25 47.72 242.95 49.27Q239.65 50.81 235.70 50.81L235.70 50.81Q230.55 50.81 226.48 48.97Q222.42 47.14 219.61 43.95Q216.80 40.77 215.31 36.47Q213.83 32.18 213.83 27.25L213.83 27.25Q213.83 22.33 215.31 18.03Q216.80 13.74 219.61 10.55Q222.42 7.37 226.48 5.53Q230.55 3.70 235.70 3.70L235.70 3.70Q238.32 3.70 240.68 4.48Q243.05 5.26 245.02 6.69Q246.99 8.11 248.50 10.12Q250 12.14 250.86 14.60L250.86 14.60L256.72 4.79L261.80 4.79 zM248.52 27.25L248.52 27.25Q248.52 25.50 248.34 23.54Q248.16 21.59 247.73 19.68Q247.30 17.76 246.54 16.02Q245.78 14.28 244.59 12.94Q243.40 11.59 241.72 10.81Q240.04 10.03 237.81 10.03L237.81 10.03Q235.59 10.03 233.95 10.83Q232.30 11.63 231.13 12.98Q229.96 14.32 229.20 16.08Q228.44 17.84 228.01 19.75Q227.58 21.67 227.40 23.60Q227.23 25.53 227.23 27.25L227.23 27.25Q227.23 28.97 227.40 30.93Q227.58 32.88 228.01 34.79Q228.44 36.71 229.20 38.46Q229.96 40.22 231.13 41.57Q232.30 42.92 233.95 43.72Q235.59 44.52 237.81 44.52L237.81 44.52Q239.84 44.52 241.43 43.68Q243.01 42.84 244.20 41.43Q245.39 40.03 246.21 38.23Q247.03 36.43 247.54 34.52Q248.05 32.61 248.28 30.71Q248.52 28.82 248.52 27.25" style="fill: rgb(5, 5, 5);" transform="translate(-127.715,-24.953)"></path></g></g><text dy="0.35em" fill="#050505" font-family="Aclonica" font-size="80">ReCra</text>
</g>
</g><style type="text/css">@keyframes animate-bngxmx8je1 { 0.00% {transform: translate(0.00px,0.00px) rotate(0.00deg) scale(0.91, 0.91) skew(0deg, 0.00deg) ;opacity: 1.00;}4.00% {transform: translate(0.00px,0.00px) rotate(0.00deg) scale(0.91, 0.91) ;}8.00% {animation-timing-function: cubic-bezier(0.69,0.60,0.35,0.27);transform: translate(0.00px,0.00px) rotate(0.00deg) scale(0.91, 0.91) ;}14.00% {transform: translate(0.00px,0.00px) rotate(0.00deg) scale(0.93, 0.93) ;}18.00% {transform: translate(0.00px,0.00px) rotate(0.00deg) scale(0.94, 0.94) ;}22.00% {animation-timing-function: cubic-bezier(0.67,0.66,0.34,0.33);transform: translate(0.00px,0.00px) rotate(0.00deg) scale(0.96, 0.96) ;}26.00% {transform: translate(0.00px,0.00px) rotate(0.00deg) scale(0.97, 0.97) ;}30.00% {transform: translate(0.00px,0.00px) rotate(0.00deg) scale(0.99, 0.99) ;}34.00% {animation-timing-function: cubic-bezier(0.65,0.71,0.32,0.38);transform: translate(0.00px,0.00px) rotate(0.00deg) scale(1.01, 1.01) ;}40.00% {animation-timing-function: cubic-bezier(0.64,0.74,0.31,0.41);transform: translate(0.00px,0.00px) rotate(0.00deg) scale(1.02, 1.02) ;}46.00% {animation-timing-function: cubic-bezier(0.60,0.91,0.23,0.63);transform: translate(0.00px,0.00px) rotate(0.00deg) scale(1.03, 1.03) ;}50.00% {transform: translate(0.00px,0.00px) rotate(0.00deg) scale(1.03, 1.03) ;}54.00% {transform: translate(0.00px,0.00px) rotate(0.00deg) scale(1.03, 1.03) ;}58.00% {animation-timing-function: cubic-bezier(0.69,0.60,0.35,0.27);transform: translate(0.00px,0.00px) rotate(0.00deg) scale(1.03, 1.03) ;}64.00% {transform: translate(0.00px,0.00px) rotate(0.00deg) scale(1.01, 1.01) ;}68.00% {transform: translate(0.00px,0.00px) rotate(0.00deg) scale(1.00, 1.00) ;}72.00% {animation-timing-function: cubic-bezier(0.67,0.66,0.34,0.33);transform: translate(0.00px,0.00px) rotate(0.00deg) scale(0.98, 0.98) ;}76.00% {animation-timing-function: cubic-bezier(0.66,0.68,0.33,0.35);transform: translate(0.00px,0.00px) rotate(0.00deg) scale(0.97, 0.97) ;}82.00% {animation-timing-function: cubic-bezier(0.65,0.71,0.32,0.38);transform: translate(0.00px,0.00px) rotate(0.00deg) scale(0.94, 0.94) ;}88.00% {animation-timing-function: cubic-bezier(0.65,0.73,0.31,0.40);transform: translate(0.00px,0.00px) rotate(0.00deg) scale(0.92, 0.92) ;}94.00% {animation-timing-function: cubic-bezier(0.63,0.80,0.28,0.48);transform: translate(0.00px,0.00px) rotate(0.00deg) scale(0.91, 0.91) ;}100.00% {animation-timing-function: cubic-bezier(0.63,0.80,0.28,0.48);transform: translate(0.00px,0.00px) rotate(0.00deg) scale(0.91, 0.91) ;} }</style><!-- [ldio] generated by https://loading.io --></svg>